<?xml version="1.0" encoding="utf-8"?>
<!-- Generator: Adobe Illustrator 21.1.0, SVG Export Plug-In . SVG Version: 6.00 Build 0)  -->
<svg version="1.1" id="Camada_1" xmlns="http://www.w3.org/2000/svg" xmlns:xlink="http://www.w3.org/1999/xlink" x="0px" y="0px"
	 viewBox="0 0 1366 768" style="enable-background:new 0 0 1366 768;" xml:space="preserve">
<style type="text/css">
	.st0{fill:#EEEEED;}
	.st1{fill:#FAFAFB;}
	.st2{fill:#F6F6F6;}
	.st3{fill:#EAEAEB;}
	.st4{fill:#E0E0E0;}
	.st5{fill:#FEFEFE;}
	.st6{fill:#F0F0F0;}
	.st7{fill:#E6E6E6;}
	.st8{fill:#F5F5F5;}
</style>
<g>
	<path class="st0" d="M557.3-16.5c102.5,0,205,0,307.5,0c3.9,3.1,5.6,7.6,8.1,11.6c20,32.5,39.2,65.4,57.5,98.8
		c12.3,22.4,24.3,45.1,36,67.9c10.7,20.8,21.1,41.7,31.2,62.8c13.4,28.1,26.4,56.3,38.9,84.8c8.7,19.8,17,39.7,25.4,59.6
		c8.6,20.4,16.5,41,24.5,61.6c5.8,15.2,11.4,30.4,17.2,45.6c0.5,1.2,1.1,2.2,1.8,3.3c3.6,13.7,9.1,26.7,13.7,40
		c10.4,29.8,20.3,59.9,29.9,90c11.3,35.5,21.8,71.2,31.8,107.1c5.9,21.2,11.6,42.4,16.9,63.8c0.4,1.7,2.2,4.1-0.9,5.4
		c-137.7,0-275.4,0-413.1,0c-3,0-3.1-2.6-3.6-4.5c-4.3-14.9-8.4-29.8-12.9-44.6c-10.6-34.3-21.4-68.4-33.5-102.2
		c-11.3-31.7-23-63.2-35.6-94.3c-13.7-34.1-28.1-67.9-43.3-101.3c-16.9-37.5-34.7-74.5-53.5-111.1c-15.2-29.7-31.1-59-47.5-88
		c-13.4-23.7-27.4-47.1-41.5-70.4c-0.6-1-1.2-1.9-1.5-3c-0.3-4,1.3-7.6,2.3-11.3c3.1-11.8,6.5-23.6,9.5-35.4c6.5-26,13.8-51.9,20-78
		c3.2-13.5,6.3-27,9.8-40.4c1.2-4.4,1.7-8.8,2.9-13.2C555.7-13.7,556-15.3,557.3-16.5z"/>
	<path class="st1" d="M-30-16.5c51,0,102,0,153,0c2.4,3,3.4,6.7,4.8,10.1C140,23.8,152.1,54.1,164,84.5
		c15.1,38.6,29.7,77.5,44,116.4c9.6,26.2,18.8,52.5,28,78.7c7.9,22.5,15.6,45.1,23.1,67.8c12,36,23.7,72.2,34.8,108.5
		c10.9,35.3,21.5,70.8,31.6,106.4c8.3,29.1,16.3,58.2,23.9,87.5c0.2,1,0.4,1.9,0.8,2.9c8.8,33.1,17,66.4,25,99.8
		c2.2,9.3,4.4,18.7,6.5,28.1c0.4,1.7,1.9,3.9-0.9,5.1c-135.2,0-270.4,0-405.6,0c-1.1,0-2.3,0-3.4,0c-1.6,0.1-2.3-0.5-2.2-2.2
		c0.1-0.9,0-1.7,0-2.6c0-264.3,0-528.6,0-792.9C-30.3-13.5-30.7-15.1-30-16.5z"/>
	<path class="st2" d="M349.5,652.5c-3.7-10.7-5.9-21.8-9-32.6c-6.5-23.3-12.9-46.7-19.7-70c-7.6-26.4-15.4-52.8-23.4-79.1
		c-5.2-17.3-10.7-34.5-16.2-51.7c-7.4-23.3-14.7-46.6-22.5-69.7c-12.1-35.8-24.1-71.5-37.1-107c-8.7-23.8-17.1-47.8-26-71.6
		c-8.9-24-18.2-48-27.4-71.9c-8-20.8-16.1-41.6-24.3-62.3c-6.6-16.7-13.4-33.2-20.2-49.9c-0.4-1-0.9-2-0.8-3.2
		c144.8,0,289.5,0,434.3,0c-1.8,8.8-3.9,17.4-6.1,26.1c-5.3,21.4-10.3,43-15.7,64.4c-4.2,16.6-8.7,33.1-13.1,49.7
		c-3.6,13.5-7.2,27.1-10.8,40.6c-0.2,0.7-0.1,1.5-0.1,2.2c-1.2,7.4-3.8,14.5-5.7,21.7c-4.5,16.9-9.3,33.7-14.2,50.5
		c-5,17.2-10.3,34.2-15.3,51.4c-6.9,23.1-14.3,46.1-21.6,69.1c-8.6,27.2-17.1,54.3-26.5,81.2c-6.5,18.5-12.5,37.2-19.2,55.6
		c-11.1,30.4-22,60.8-33.5,91.1c-7.4,19.5-15.6,38.7-22.6,58.4C352.1,647.9,351.2,650.4,349.5,652.5z"/>
	<path class="st3" d="M1104.8,479.3c-3.4-1.7-3.2-5.5-4.2-8.2c-8.4-23.5-17.7-46.6-26.7-69.8c-6.7-17.4-14.2-34.4-21.4-51.6
		c-8.6-20.6-17.3-41-26.5-61.3c-6.6-14.6-13.4-29.1-20.1-43.6c-10.1-22-20.5-43.8-31.6-65.3c-7.8-15-15.4-30.2-23.4-45.1
		c-9.5-17.9-19.1-35.8-28.9-53.5c-8.1-14.7-16.6-29.1-25.1-43.6C887,20.5,876.9,3.9,867-12.7c-0.7-1.3-2.3-2-2.3-3.8
		c126.5,0,253,0,379.5,0c1.1,3.8-0.5,7.3-1.1,10.9c-1.4,9.3-3.9,18.5-4.5,27.9c-1.9,3.8-2.3,7.9-3.1,11.9
		c-5.3,26.6-10.9,53.1-16.9,79.5c-5.1,22.4-10.7,44.7-16.4,67c-6.8,26.4-14.1,52.6-21.8,78.7c-6.1,20.7-12.4,41.4-19.1,61.9
		c-5,15.7-10,31.4-15.4,47c-6.4,18.5-12.9,37-19.7,55.4c-6.3,17.1-12.9,34.1-19.2,51.2C1106.6,476.6,1106.3,478.3,1104.8,479.3z"/>
	<path class="st4" d="M1238.2,22.5c-1.6-3.9,0.1-7.6,0.8-11.3c1.6-9.3,3.5-18.5,5.2-27.7c51,0,102,0,153,0c1,1.2,0.7,2.6,0.7,4
		c0,82.9,0,165.7,0,248.5c-0.2,2-1.1,2.6-2.4,0.8c-1.5-1.9-2.7-3.9-4-5.9c-12.9-21-26.1-41.7-40.3-61.8
		c-8.1-11.5-15.8-23.4-24.4-34.6c-10.3-13.5-20.3-27.2-30.6-40.7c-8.3-10.8-16.9-21.3-25.4-31.9c-8.8-11-18.1-21.6-27.4-32.2
		C1241.5,27.5,1239.2,25.5,1238.2,22.5z"/>
	<path class="st5" d="M-30-16.5c0,265.2,0,530.3,0,795.5c0,1.1,0.1,2.3,0,3.4c-0.2,2.1,0.6,3.1,2.8,2.9c1.1-0.1,2.2,0,3.4,0
		c135.2,0,270.4,0,405.6,0c1.1-1,2.4-1.2,3.8-1.2c1.4-0.1,2.7,0,4.1,0c128.2,0,256.4,0,384.6,0c2.7,0,5.5-0.7,8,1.2
		c138.5,0,277,0,415.5,0c2-1.7,4.5-1.2,6.8-1.2c44.8,0,89.7,0,134.5,0c17.4,0,34.7,0,52.1,0c1.6,0,3.2-0.1,4.9,0.2
		c1,0.1,2,0.3,2.7,1.1c-0.2,0.2,0.4,0.8-0.4,0.8c-1,0-2,0-3,0c-474.2,0-948.3,0-1422.5,0.1c-2.9,0-3.7-0.4-3.7-3.6
		c0.1-265.2,0.1-530.4,0.1-795.6C-30.7-14.2-31.6-15.7-30-16.5z"/>
	<path class="st6" d="M1398.8,785.3c-0.8,0-1.5,0-2.3,0c-1-1.1-1.2-2.4-1.2-3.8c-0.1-1.5,0-3,0-4.5c0-176.7,0-353.4,0-530.1
		c0-1.7-0.1-3.5,0.1-5.2c0.1-1.5,0.3-3,1.9-3.8c0-84.7,0-169.5,0-254.2c0.5,0.3,1.6-0.7,1.5,0.8c0,0.9,0,1.7,0,2.6
		C1398.8,253,1398.8,519.1,1398.8,785.3z"/>
	<path class="st7" d="M1397.2,237.7c-1.1,1.8-0.7,3.9-0.7,5.9c0,179,0,358.1,0,537.1c0,1.5,0,3,0,4.5c-66.2,0-132.5,0-198.7,0
		c-3-13.6-6.7-27-10.4-40.4c-6.2-22.5-12.4-45.1-18.9-67.6c-4-14.1-8.4-28.1-12.7-42.2c-8.5-28.1-17.6-56.1-27-84
		c-7.2-21.2-14.5-42.4-22.4-63.4c-1-2.7-2-5.4-1.6-8.4c2.9-9.6,7-18.8,10.4-28.3c3.1-8.5,6.2-17,9.4-25.5c2.6-7.1,5.4-14.2,7.9-21.3
		c2-5.6,3.9-11.3,5.9-16.9c3.5-9.4,6.7-19,9.8-28.6c5.5-16.9,10.9-33.9,16.3-50.8c3.5-11,7.1-21.9,10.4-33
		c4.3-14.4,8.2-28.9,12.3-43.3c4.5-15.7,8.8-31.5,12.8-47.4c3.5-14.1,7.5-28.1,10.9-42.2c3.4-14,6.8-28,9.8-42
		c5.2-24.6,10.2-49.3,15.3-73.9c0.3-1.3,0.1-3.1,2.2-3.5c5.2,6,10.5,11.9,15.7,17.9c4.8,5.6,9.5,11.2,14.1,16.8
		c6.6,7.9,13.3,15.8,19.7,23.9c9.6,12.2,19.2,24.4,28.3,37c8.2,11.5,16.8,22.7,24.8,34.4c10.3,15.1,21,29.9,30.9,45.2
		C1380.3,211,1388.7,224.4,1397.2,237.7z"/>
	<path class="st8" d="M782.3,785.2c-133.5,0-267,0-400.5,0c-8.4-37.3-17.6-74.4-27-111.4c-1.8-7.1-3.5-14.2-5.3-21.3
		c0.5-4.3,2.7-7.9,4.2-11.8c5.6-14.8,11.7-29.3,17.3-44.1c4.8-12.5,9-25.3,13.9-37.7c6.4-16,11.5-32.5,17.7-48.6
		c5.2-13.6,9.7-27.4,14.4-41.1c6.3-18.4,13.1-36.6,19-55.1c5.3-16.4,10.6-32.7,16-49c6.2-18.8,11.7-37.8,17.5-56.7
		c5.9-19.5,11.6-39.1,17.6-58.6c8.1-26.6,15.3-53.5,22.8-80.3c0.3-1.1,0.6-2.2,1.5-2.9c6.4,9.2,11.8,19,17.6,28.6
		c12.6,20.6,24.3,41.7,36.2,62.8c6.7,11.8,13.1,23.8,19.4,35.8c12.7,24.2,25.4,48.4,37.3,73.1c13.7,28.4,27.2,56.9,40,85.7
		c15.4,34.6,30,69.5,43.9,104.7c8.4,21.4,16.5,43,24.3,64.7c8.6,23.8,16.8,47.7,24.5,71.8c9.3,28.8,18.1,57.7,26,86.9
		C781.3,782.2,781.8,783.7,782.3,785.2z"/>
</g>
</svg>
